<?xml version="1.0" standalone="no"?><!DOCTYPE svg PUBLIC "-//W3C//DTD SVG 1.1//EN" "http://www.w3.org/Graphics/SVG/1.1/DTD/svg11.dtd"><svg t="1767512433461" class="icon" viewBox="0 0 1024 1024" version="1.1" xmlns="http://www.w3.org/2000/svg" p-id="7718" width="256" height="256" xmlns:xlink="http://www.w3.org/1999/xlink"><path d="M836.352 101.568H447.424l-236.032 391.04V569.6h113.024L211.392 866.368v54.272l78.016 1.728 466.944-430.784V414.08H603.904l232.512-232.512v-80z m-403.2 310.464l-51.264-0.832c1.024-60.928 7.68-81.472 10.496-87.488l23.168 10.88 23.744 9.536c-0.192 0.64-5.312 15.808-6.144 67.904z m168.32-230.08l-6.208 24.832c-3.904-0.96-91.84-20.096-145.984 115.328l-47.488-19.008C473.28 124.16 606.528 156.928 608 157.184l-6.528 24.768z" fill="#369EFF" p-id="7719"></path></svg>